<svg width="23" height="23" viewBox="0 0 23 23" fill="none" xmlns="http://www.w3.org/2000/svg">
<path d="M18.8472 4.47223H6.70833C6.45417 4.47223 6.21041 4.5732 6.03069 4.75292C5.85097 4.93264 5.75 5.1764 5.75 5.43056V20.7639C5.75 21.0181 5.85097 21.2618 6.03069 21.4415C6.21041 21.6213 6.45417 21.7222 6.70833 21.7222H18.8472C19.1014 21.7222 19.3451 21.6213 19.5249 21.4415C19.7046 21.2618 19.8056 21.0181 19.8056 20.7639V5.43056C19.8056 5.1764 19.7046 4.93264 19.5249 4.75292C19.3451 4.5732 19.1014 4.47223 18.8472 4.47223ZM18.5278 20.4445H7.02778V5.75001H18.5278V20.4445Z" fill="white"/>
<path d="M16.6111 2.2361C16.6111 1.98194 16.5101 1.73818 16.3304 1.55846C16.1507 1.37874 15.9069 1.27777 15.6528 1.27777H3.51388C3.25971 1.27777 3.01595 1.37874 2.83623 1.55846C2.65651 1.73818 2.55554 1.98194 2.55554 2.2361V17.5694C2.55554 17.8236 2.65651 18.0674 2.83623 18.2471C3.01595 18.4268 3.25971 18.5278 3.51388 18.5278H3.83332V2.55555H16.6111V2.2361Z" fill="white"/>
</svg>
