<svg width="41" height="41" viewBox="0 0 41 41" fill="none" xmlns="http://www.w3.org/2000/svg">
<circle cx="20.325" cy="20.325" r="19.825" stroke="#E53F27"/>
<path opacity="0.3" d="M21.9355 27.7418C20.6581 27.7418 19.6129 26.6967 19.6129 25.4192V18.4515C19.6129 17.1741 20.6581 16.1289 21.9355 16.1289H28.9032V13.8063H12.6452V30.0644H28.9032V27.7418H21.9355Z" fill="#E53F27"/>
<path d="M31.2258 16.4541V13.8063C31.2258 12.5289 30.1807 11.4838 28.9032 11.4838H12.6452C12.0292 11.4838 11.4384 11.7285 11.0029 12.164C10.5673 12.5996 10.3226 13.1904 10.3226 13.8063V30.0644C10.3226 30.6804 10.5673 31.2712 11.0029 31.7067C11.4384 32.1423 12.0292 32.387 12.6452 32.387H28.9032C30.1807 32.387 31.2258 31.3418 31.2258 30.0644V27.4167C31.5769 27.214 31.8687 26.923 32.0725 26.5726C32.2762 26.2222 32.3847 25.8246 32.3871 25.4192V18.4515C32.3871 17.5922 31.911 16.8489 31.2258 16.4541ZM30.0645 18.4515V25.4192H21.9355V18.4515H30.0645ZM12.6452 30.0644V13.8063H28.9032V16.1289H21.9355C20.6581 16.1289 19.6129 17.1741 19.6129 18.4515V25.4192C19.6129 26.6967 20.6581 27.7418 21.9355 27.7418H28.9032V30.0644H12.6452Z" fill="#E53F27"/>
<path d="M25.4194 24.2579C26.3814 24.2579 27.1613 23.478 27.1613 22.516C27.1613 21.5539 26.3814 20.774 25.4194 20.774C24.4573 20.774 23.6774 21.5539 23.6774 22.516C23.6774 23.478 24.4573 24.2579 25.4194 24.2579Z" fill="#E53F27"/>
<circle cx="13.2258" cy="13.2258" r="5.22581" fill="#E53F27"/>
<path d="M15.3226 12.6662V12.9787H12.9789V15.3224H12.6664V12.9787H10.3226V12.6662H12.6664V10.3224H12.9789V12.6662H15.3226Z" fill="black"/>
</svg>
