<svg width="41" height="41" viewBox="0 0 41 41" fill="none" xmlns="http://www.w3.org/2000/svg">
<circle cx="20.325" cy="20.325" r="19.825" stroke="#E53F27"/>
<path fill-rule="evenodd" clip-rule="evenodd" d="M24.3214 18.4151C24.3883 18.3484 24.4414 18.269 24.4777 18.1817C24.5139 18.0944 24.5326 18.0008 24.5326 17.9063C24.5326 17.8117 24.5139 17.7181 24.4777 17.6308C24.4414 17.5435 24.3883 17.4641 24.3214 17.3974L20.0089 13.0849C19.9421 13.0179 19.8628 12.9648 19.7755 12.9286C19.6882 12.8924 19.5946 12.8737 19.5 12.8737C19.4055 12.8737 19.3119 12.8924 19.2246 12.9286C19.1372 12.9648 19.0579 13.0179 18.9911 13.0849L14.6786 17.3974C14.5437 17.5323 14.4679 17.7154 14.4679 17.9063C14.4679 18.0971 14.5437 18.2802 14.6786 18.4151C14.8136 18.5501 14.9967 18.6259 15.1875 18.6259C15.3784 18.6259 15.5614 18.5501 15.6964 18.4151L19.5 14.6101L23.3036 18.4151C23.3704 18.4821 23.4497 18.5352 23.5371 18.5714C23.6244 18.6076 23.718 18.6263 23.8125 18.6263C23.9071 18.6263 24.0007 18.6076 24.088 18.5714C24.1753 18.5352 24.2546 18.4821 24.3214 18.4151Z" fill="white"/>
<path fill-rule="evenodd" clip-rule="evenodd" d="M19.5 24.375C19.6906 24.375 19.8734 24.2993 20.0082 24.1645C20.143 24.0297 20.2188 23.8469 20.2188 23.6562V14.3125C20.2188 14.1219 20.143 13.9391 20.0082 13.8043C19.8734 13.6695 19.6906 13.5938 19.5 13.5938C19.3094 13.5938 19.1266 13.6695 18.9918 13.8043C18.857 13.9391 18.7813 14.1219 18.7813 14.3125V23.6562C18.7813 23.8469 18.857 24.0297 18.9918 24.1645C19.1266 24.2993 19.3094 24.375 19.5 24.375ZM12.6 26.675C12.6 26.3588 12.8588 26.1 13.175 26.1H25.825C25.9775 26.1 26.1238 26.1606 26.2316 26.2684C26.3394 26.3762 26.4 26.5225 26.4 26.675C26.4 26.8275 26.3394 26.9738 26.2316 27.0816C26.1238 27.1894 25.9775 27.25 25.825 27.25H13.175C13.0225 27.25 12.8763 27.1894 12.7684 27.0816C12.6606 26.9738 12.6 26.8275 12.6 26.675Z" fill="white"/>
</svg>
