<?xml version="1.0" encoding="utf-8"?>
<!-- Generator: Adobe Illustrator 19.2.1, SVG Export Plug-In . SVG Version: 6.00 Build 0)  -->
<svg version="1.1" id="Layer_1" xmlns="http://www.w3.org/2000/svg" xmlns:xlink="http://www.w3.org/1999/xlink" x="0px" y="0px"
	 viewBox="0 0 24 24" style="enable-background:new 0 0 24 24;" xml:space="preserve">
<path d="M20.8,10.6l-2-1.5V6.3c0-0.3-0.2-0.5-0.5-0.5c-0.3,0-0.5,0.2-0.5,0.5v2.1l-5.7-4.3c-0.2-0.2-0.4-0.2-0.6,0l-8.6,6.4
	C3,10.7,2.9,11,3.1,11.2c0.2,0.2,0.5,0.3,0.7,0.1L12,5.1l8.3,6.2c0.1,0.1,0.2,0.1,0.3,0.1c0.2,0,0.3,0,0.4-0.2
	C21,11,21,10.7,20.8,10.6z"/>
<path d="M18.3,12.6c-0.3,0-0.5,0.2-0.5,0.5v8.1h-3.3v-5.9c0-0.2-0.1-0.3-0.2-0.4l-1.8-1.8l1.2-1.2C13.9,12,14,12,14.1,12
	c0.5,0,1-0.4,1-1c0-0.5-0.4-1-1-1c-0.5,0-1,0.4-1,1c0,0.1,0,0.1,0,0.2l-1.2,1.2l-1.2-1.2c0-0.1,0-0.2,0-0.2c0-0.5-0.4-1-1-1
	c-0.5,0-1,0.4-1,1c0,0.5,0.4,1,1,1c0.1,0,0.2,0,0.3-0.1l1.2,1.2l-1.8,1.8c-0.1,0.1-0.2,0.2-0.2,0.4v5.9H6v-8.1
	c0-0.3-0.2-0.5-0.5-0.5c-0.3,0-0.5,0.2-0.5,0.5v8.6c0,0.3,0.2,0.5,0.5,0.5h4.3c0.3,0,0.5-0.2,0.5-0.5v-6.2l1.7-1.7l1.7,1.7v6.2
	c0,0.3,0.2,0.5,0.5,0.5h4.3c0.3,0,0.5-0.2,0.5-0.5v-8.6C18.8,12.8,18.6,12.6,18.3,12.6z"/>
</svg>
