<?xml version="1.0" encoding="utf-8"?>
<!-- Generator: Adobe Illustrator 19.2.1, SVG Export Plug-In . SVG Version: 6.00 Build 0)  -->
<svg version="1.1" id="Layer_1" xmlns="http://www.w3.org/2000/svg" xmlns:xlink="http://www.w3.org/1999/xlink" x="0px" y="0px"
	 viewBox="0 0 20 20" style="enable-background:new 0 0 20 20;" xml:space="preserve">
<!-- <style type="text/css">
	.st0{}
</style> -->
<g id="Layer_1">
	<g>
		<path class="st0" stroke-width="1" d="M18,18V7.1l-8-4.8L2,7.1V18h4v-2.8c0-1.1,0.4-2.1,1.2-2.8c0.8-0.8,1.8-1.2,2.8-1.2c1.1,0,2.1,0.4,2.8,1.2
			c0.8,0.8,1.2,1.8,1.2,2.8V18H18z M12,20v-4.8c0-0.5-0.2-1-0.6-1.4c-0.4-0.4-0.9-0.6-1.4-0.6c-0.5,0-1,0.2-1.4,0.6
			C8.2,14.2,8,14.7,8,15.3V20H2c-0.5,0-1-0.2-1.4-0.6C0.2,19,0,18.5,0,18V7.1c0-0.3,0.1-0.7,0.3-1C0.4,5.8,0.7,5.6,1,5.4l8-4.8
			c0.3-0.2,0.7-0.3,1-0.3c0.4,0,0.7,0.1,1,0.3l8,4.8c0.3,0.2,0.5,0.4,0.7,0.7c0.2,0.3,0.3,0.6,0.3,1V18c0,0.5-0.2,1-0.6,1.4
			C19,19.8,18.5,20,18,20H12z"/>
	</g>
</g>
</svg>
