<svg width="137" height="33" viewBox="0 0 137 33" fill="none" xmlns="http://www.w3.org/2000/svg">
<path d="M23.8827 26V9.1H28.3547V22.256H34.7507V26H23.8827ZM42.957 26.312C42.0037 26.312 41.1197 26.1647 40.305 25.87C39.4903 25.558 38.7797 25.116 38.173 24.544C37.5837 23.9547 37.1157 23.2353 36.769 22.386C36.4223 21.5367 36.249 20.5747 36.249 19.5C36.249 18.4427 36.4223 17.498 36.769 16.666C37.133 15.8167 37.601 15.0973 38.173 14.508C38.7623 13.9187 39.4297 13.468 40.175 13.156C40.9203 12.844 41.6917 12.688 42.489 12.688C43.4423 12.688 44.2743 12.8527 44.985 13.182C45.6957 13.5113 46.285 13.962 46.753 14.534C47.221 15.106 47.5677 15.7733 47.793 16.536C48.0357 17.2987 48.157 18.1133 48.157 18.98C48.157 19.3787 48.131 19.7513 48.079 20.098C48.0443 20.4447 48.0097 20.696 47.975 20.852H40.565C40.773 21.632 41.1457 22.178 41.683 22.49C42.2203 22.7847 42.853 22.932 43.581 22.932C44.0317 22.932 44.465 22.8713 44.881 22.75C45.3143 22.6113 45.765 22.412 46.233 22.152L47.689 24.804C46.9783 25.3067 46.1897 25.688 45.323 25.948C44.4737 26.1907 43.685 26.312 42.957 26.312ZM40.513 17.94H44.361C44.361 17.4373 44.231 17.004 43.971 16.64C43.7283 16.2587 43.269 16.068 42.593 16.068C42.0903 16.068 41.6483 16.2153 41.267 16.51C40.903 16.8047 40.6517 17.2813 40.513 17.94ZM55.0886 31.356C54.3433 31.356 53.6413 31.2953 52.9826 31.174C52.324 31.07 51.7433 30.888 51.2406 30.628C50.7553 30.368 50.3653 30.03 50.0706 29.614C49.776 29.2153 49.6286 28.7213 49.6286 28.132C49.6286 27.1093 50.2353 26.2773 51.4486 25.636V25.532C51.102 25.2893 50.816 24.9947 50.5906 24.648C50.3653 24.3013 50.2526 23.8507 50.2526 23.296C50.2526 22.8453 50.3826 22.4033 50.6426 21.97C50.9026 21.5367 51.258 21.164 51.7086 20.852V20.748C51.2406 20.436 50.8246 19.994 50.4606 19.422C50.114 18.85 49.9406 18.1827 49.9406 17.42C49.9406 16.6227 50.0966 15.9293 50.4086 15.34C50.7206 14.7333 51.1366 14.2393 51.6566 13.858C52.1766 13.4593 52.766 13.1647 53.4246 12.974C54.1006 12.7833 54.794 12.688 55.5046 12.688C56.2673 12.688 56.9606 12.792 57.5846 13H62.4206V16.224H60.5486C60.6006 16.38 60.644 16.5793 60.6786 16.822C60.7306 17.0647 60.7566 17.316 60.7566 17.576C60.7566 18.3387 60.618 18.9973 60.3406 19.552C60.0633 20.0893 59.6906 20.5313 59.2226 20.878C58.7546 21.2247 58.2 21.4847 57.5586 21.658C56.9173 21.814 56.2326 21.892 55.5046 21.892C55.0713 21.892 54.586 21.8313 54.0486 21.71C53.91 21.8313 53.8233 21.944 53.7886 22.048C53.754 22.1347 53.7366 22.2733 53.7366 22.464C53.7366 22.7587 53.8753 22.9667 54.1526 23.088C54.43 23.192 54.898 23.244 55.5566 23.244H57.5066C59.136 23.244 60.3926 23.5127 61.2766 24.05C62.178 24.57 62.6286 25.428 62.6286 26.624C62.6286 27.3347 62.4466 27.976 62.0826 28.548C61.736 29.1373 61.2333 29.64 60.5746 30.056C59.9333 30.472 59.1446 30.7927 58.2086 31.018C57.29 31.2433 56.25 31.356 55.0886 31.356ZM55.5046 19.24C55.9206 19.24 56.2586 19.0927 56.5186 18.798C56.7786 18.5033 56.9086 18.044 56.9086 17.42C56.9086 16.8133 56.7786 16.3713 56.5186 16.094C56.2586 15.7993 55.9206 15.652 55.5046 15.652C55.0886 15.652 54.7506 15.7993 54.4906 16.094C54.2306 16.3713 54.1006 16.8133 54.1006 17.42C54.1006 18.044 54.2306 18.5033 54.4906 18.798C54.7506 19.0927 55.0886 19.24 55.5046 19.24ZM55.8166 28.6C56.5446 28.6 57.1513 28.4873 57.6366 28.262C58.122 28.054 58.3646 27.768 58.3646 27.404C58.3646 27.0573 58.2086 26.8407 57.8966 26.754C57.602 26.6673 57.1773 26.624 56.6226 26.624H55.6086C55.0886 26.624 54.69 26.6067 54.4126 26.572C54.1526 26.5547 53.9273 26.52 53.7366 26.468C53.5806 26.624 53.4593 26.7713 53.3726 26.91C53.3033 27.0487 53.2686 27.2133 53.2686 27.404C53.2686 27.82 53.5026 28.1233 53.9706 28.314C54.4386 28.5047 55.054 28.6 55.8166 28.6ZM70.0742 26.312C69.1208 26.312 68.2368 26.1647 67.4222 25.87C66.6075 25.558 65.8968 25.116 65.2902 24.544C64.7008 23.9547 64.2328 23.2353 63.8862 22.386C63.5395 21.5367 63.3662 20.5747 63.3662 19.5C63.3662 18.4427 63.5395 17.498 63.8862 16.666C64.2502 15.8167 64.7182 15.0973 65.2902 14.508C65.8795 13.9187 66.5468 13.468 67.2922 13.156C68.0375 12.844 68.8088 12.688 69.6062 12.688C70.5595 12.688 71.3915 12.8527 72.1022 13.182C72.8128 13.5113 73.4022 13.962 73.8702 14.534C74.3382 15.106 74.6848 15.7733 74.9102 16.536C75.1528 17.2987 75.2742 18.1133 75.2742 18.98C75.2742 19.3787 75.2482 19.7513 75.1962 20.098C75.1615 20.4447 75.1268 20.696 75.0922 20.852H67.6822C67.8902 21.632 68.2628 22.178 68.8002 22.49C69.3375 22.7847 69.9702 22.932 70.6982 22.932C71.1488 22.932 71.5822 22.8713 71.9982 22.75C72.4315 22.6113 72.8822 22.412 73.3502 22.152L74.8062 24.804C74.0955 25.3067 73.3068 25.688 72.4402 25.948C71.5908 26.1907 70.8022 26.312 70.0742 26.312ZM67.6302 17.94H71.4782C71.4782 17.4373 71.3482 17.004 71.0882 16.64C70.8455 16.2587 70.3862 16.068 69.7102 16.068C69.2075 16.068 68.7655 16.2153 68.3842 16.51C68.0202 16.8047 67.7688 17.2813 67.6302 17.94ZM77.7277 26V13H81.3677L81.6797 14.56H81.7837C82.3037 14.0573 82.8931 13.624 83.5517 13.26C84.2277 12.8787 85.0077 12.688 85.8917 12.688C87.3131 12.688 88.3444 13.1733 88.9857 14.144C89.6271 15.0973 89.9477 16.38 89.9477 17.992V26H85.4757V18.564C85.4757 17.732 85.3717 17.1773 85.1637 16.9C84.9557 16.6227 84.6264 16.484 84.1757 16.484C83.7597 16.484 83.4131 16.5707 83.1357 16.744C82.8584 16.9173 82.5464 17.16 82.1997 17.472V26H77.7277ZM97.5925 26.312C96.7779 26.312 96.0412 26.156 95.3825 25.844C94.7412 25.532 94.1865 25.0813 93.7185 24.492C93.2679 23.9027 92.9125 23.192 92.6525 22.36C92.4099 21.5107 92.2885 20.5573 92.2885 19.5C92.2885 18.4427 92.4359 17.4893 92.7305 16.64C93.0425 15.7907 93.4412 15.08 93.9265 14.508C94.4292 13.9187 95.0012 13.468 95.6425 13.156C96.2839 12.844 96.9339 12.688 97.5925 12.688C98.3032 12.688 98.8839 12.8093 99.3345 13.052C99.7852 13.2773 100.21 13.5893 100.609 13.988L100.453 12.116V7.904H104.925V26H101.285L100.973 24.804H100.869C100.418 25.2547 99.8979 25.6187 99.3085 25.896C98.7365 26.1733 98.1645 26.312 97.5925 26.312ZM98.7885 22.672C99.1352 22.672 99.4385 22.6113 99.6985 22.49C99.9585 22.3513 100.21 22.1 100.453 21.736V16.952C100.193 16.7093 99.9065 16.5447 99.5945 16.458C99.2825 16.3713 98.9792 16.328 98.6845 16.328C98.2165 16.328 97.7919 16.562 97.4105 17.03C97.0465 17.498 96.8645 18.304 96.8645 19.448C96.8645 20.6267 97.0292 21.4587 97.3585 21.944C97.7052 22.4293 98.1819 22.672 98.7885 22.672ZM111.531 26V12.844H107.059V9.1H120.475V12.844H116.003V26H111.531ZM125.842 26L120.85 9.1H125.582L127.35 16.484C127.593 17.3853 127.801 18.278 127.974 19.162C128.148 20.0287 128.356 20.9213 128.598 21.84H128.702C128.945 20.9213 129.153 20.0287 129.326 19.162C129.517 18.278 129.725 17.3853 129.95 16.484L131.666 9.1H136.242L131.25 26H125.842Z" fill="#F4F4F4"/>
<path d="M18.1352 16.5116H0.283364C0.141683 16.5116 0 16.6548 0 16.7979V19.0161C0 19.1592 0.141683 19.3023 0.283364 19.3023H18.1352C18.2769 19.3023 18.4186 19.1592 18.4186 19.0161V16.7979C18.3478 16.6548 18.2769 16.5116 18.1352 16.5116Z" fill="#E53F27"/>
<path d="M18.1352 23.2093H0.283364C0.141683 23.2093 0 23.3524 0 23.4955V25.7138C0 25.8569 0.141683 26 0.283364 26H18.1352C18.2769 26 18.4186 25.8569 18.4186 25.7138V23.4955C18.3478 23.2809 18.2769 23.2093 18.1352 23.2093Z" fill="#FF5000"/>
<path d="M18.1352 10H0.283364C0.141683 10 0 10.1431 0 10.2862V12.5045C0 12.6476 0.141683 12.7907 0.283364 12.7907H18.1352C18.2769 12.7907 18.4186 12.6476 18.4186 12.5045V10.2862C18.3478 10.1431 18.2769 10 18.1352 10Z" fill="#FF5000"/>
</svg>
