<svg width="892" height="229" viewBox="0 0 892 229" fill="none" xmlns="http://www.w3.org/2000/svg">
<path d="M763.333 77.2878H734.708V62.4982H810.088V77.2878H781.463V162.209H763.333V77.2878Z" fill="white"/>
<path d="M808.657 62.4982H827.263L841.098 112.592C844.438 124.042 846.346 133.584 849.686 145.034H850.163C853.503 133.584 855.888 124.042 859.228 112.592L873.063 62.4982H891.192L860.659 162.209H839.667L808.657 62.4982Z" fill="white"/>
<path d="M287.205 61.5441H294.361V156.007H340.638V162.209H287.205V61.5441Z" fill="#FF5100"/>
<path d="M381.19 87.3064C398.365 87.3064 409.338 99.7105 409.338 121.179C409.338 123.088 409.338 124.996 408.861 126.904H355.905C356.382 145.511 366.878 158.869 383.576 158.869C391.686 158.869 397.888 156.483 403.136 152.19L405.999 157.438C400.274 160.777 393.594 164.594 383.099 164.594C364.492 164.594 349.226 150.281 349.226 126.427C349.226 102.573 364.492 87.3064 381.19 87.3064ZM402.659 121.179C402.659 102.573 394.071 92.5543 381.19 92.5543C368.786 92.5543 357.336 103.527 355.905 121.179H402.659Z" fill="#FF5100"/>
<path d="M432.238 159.346V158.869C428.421 156.961 426.035 152.667 426.035 146.942C426.035 140.263 430.806 135.969 434.146 133.583V133.106C429.375 129.29 425.081 121.656 425.081 113.069C425.081 97.8022 436.531 87.3064 450.844 87.3064C454.66 87.3064 458 88.2605 460.385 89.2147H485.194V94.9397H467.542C472.313 99.2335 475.652 105.436 475.652 113.546C475.652 128.336 464.679 139.308 450.367 139.308C446.073 139.308 441.302 138.354 437.963 136.446C434.623 138.831 432.238 142.171 432.238 146.942C432.238 152.19 435.1 156.483 446.073 156.483H461.817C478.515 156.483 486.148 161.731 486.148 173.181C486.148 186.063 472.79 197.99 451.321 197.99C432.715 197.99 421.265 189.879 421.265 177.475C421.265 170.796 425.558 164.117 432.238 159.346ZM452.275 191.788C468.973 191.788 479.469 182.246 479.469 173.181C479.469 165.071 473.744 162.208 462.294 162.208H446.55C445.119 162.208 441.302 161.731 437.485 160.777C430.806 165.548 427.944 170.796 427.944 176.044C427.944 185.586 436.531 191.788 452.275 191.788ZM469.45 113.069C469.45 100.665 460.863 92.5543 450.367 92.5543C439.871 92.5543 431.283 100.188 431.283 113.069C431.283 125.473 440.348 133.583 450.367 133.583C460.385 133.583 469.45 125.473 469.45 113.069Z" fill="#FF5100"/>
<path d="M525.746 87.3064C542.921 87.3064 553.894 99.7105 553.894 121.179C553.894 123.088 553.894 124.996 553.417 126.904H500.938C501.415 145.511 511.911 158.869 528.609 158.869C536.719 158.869 542.921 156.483 548.169 152.19L551.032 157.438C545.307 160.777 538.628 164.594 528.132 164.594C509.525 164.594 494.259 150.281 494.259 126.427C494.259 102.573 509.525 87.3064 525.746 87.3064ZM547.692 121.179C547.692 102.573 539.105 92.5543 526.223 92.5543C513.819 92.5543 502.369 103.527 500.938 121.179H547.692Z" fill="#FF5100"/>
<path d="M573.931 88.7378H579.656L580.133 100.188H580.61C588.244 92.5545 595.877 86.8295 605.896 86.8295C621.162 86.8295 627.842 95.8941 627.842 114.977V162.209H621.162V115.932C621.162 100.188 616.392 93.0316 604.464 93.0316C595.877 93.0316 589.675 97.8024 580.61 106.867V162.209H573.931V88.7378Z" fill="#FF5100"/>
<path d="M681.276 87.3066C690.341 87.3066 696.066 90.6462 703.222 96.3712L702.745 83.0128V52.4795H709.424V162.209H703.699L703.222 152.667H702.745C697.02 158.392 688.91 164.117 678.891 164.117C660.285 164.117 648.357 150.759 648.357 125.95C648.835 102.096 664.101 87.3066 681.276 87.3066ZM680.322 157.915C688.432 157.915 695.589 153.621 703.222 145.988V102.573C695.589 95.8941 688.91 93.0316 681.753 93.0316C666.964 93.0316 655.991 107.344 655.991 125.473C655.991 145.034 664.578 157.915 680.322 157.915Z" fill="#FF5100"/>
<path d="M86.3521 85.3979V144.556L149.804 114.5L86.3521 85.3979Z" fill="#E53F27"/>
<path d="M222.798 120.702C219.459 120.702 216.596 117.84 216.596 114.5C216.596 58.2042 170.796 11.9271 114.023 11.9271C82.0585 11.9271 51.5252 27.1938 32.4418 52.4792H169.365C172.704 52.4792 175.567 55.3417 175.567 58.6813C175.567 62.0208 172.704 64.8833 169.365 64.8833H21.4689C19.0835 64.8833 17.1752 63.9292 16.221 62.0208C15.2668 60.1125 15.2668 57.7271 16.221 55.8188C36.7356 21.4688 74.4252 0 114.5 0C177.475 0 229 51.525 229 114.5C229 117.84 226.138 120.702 222.798 120.702Z" fill="white"/>
<path d="M114.5 229C51.525 229 0 177.475 0 114.5C0 111.161 2.8625 108.298 6.20208 108.298C9.54167 108.298 12.4042 111.161 12.4042 114.5C12.4042 170.796 58.2042 217.073 114.977 217.073C147.419 217.073 177.952 201.329 197.035 176.044H58.6813C55.3417 176.044 52.4792 173.181 52.4792 169.842C52.4792 166.502 55.3417 163.64 58.6813 163.64H208.485C210.871 163.64 212.779 164.594 213.733 166.502C214.688 168.411 214.688 170.796 213.733 172.704C192.742 207.531 154.575 229 114.5 229Z" fill="white"/>
<path d="M87.3061 153.144C86.3519 153.144 84.9207 152.667 83.9665 152.19C82.0582 151.236 81.104 149.327 81.104 146.942V82.0585C81.104 80.1501 82.0582 78.2418 83.9665 76.8105C85.8748 75.8564 87.7832 75.3793 89.6915 76.3335L155.052 108.775C156.96 109.729 158.392 112.115 158.392 114.023C158.392 115.931 156.96 118.317 155.052 119.271L90.1686 152.667C89.2144 153.144 88.2603 153.144 87.3061 153.144ZM93.5082 91.6001V137.4L139.308 114.5L93.5082 91.6001Z" fill="white"/>
</svg>
