<?xml version="1.0" encoding="utf-8"?>
<!-- Generator: Adobe Illustrator 19.2.1, SVG Export Plug-In . SVG Version: 6.00 Build 0)  -->
<svg version="1.1" id="Layer_1" xmlns="http://www.w3.org/2000/svg" xmlns:xlink="http://www.w3.org/1999/xlink" x="0px" y="0px"
	 viewBox="0 0 18 18" style="enable-background:new 0 0 18 18;" xml:space="preserve">
<!-- <style type="text/css">
	.st0{fill:none;}
</style> -->
<path class="st0" d="M17.4,15.3l-4.3-3.6c-0.4-0.4-0.9-0.6-1.3-0.6c1.1-1.3,1.7-3,1.6-4.8c-0.1-1.7-0.9-3.4-2.2-4.6
	C10,0.6,8.4,0,6.6,0C4.9,0,3.2,0.7,2,2C0.7,3.2,0,4.9,0,6.6c0,1.7,0.6,3.4,1.8,4.7c1.2,1.3,2.8,2.1,4.6,2.2c1.7,0.1,3.5-0.5,4.8-1.6
	c0,0.4,0.2,0.9,0.6,1.3l3.6,4.3c0.6,0.7,1.6,0.7,2.3,0.1C18.2,17,18.1,15.9,17.4,15.3L17.4,15.3z M6.8,11.2c-1.2,0-2.3-0.5-3.2-1.3
	c-0.8-0.8-1.3-2-1.3-3.2c0-1.2,0.5-2.3,1.3-3.2c0.8-0.8,2-1.3,3.2-1.3s2.3,0.5,3.2,1.3c0.8,0.8,1.3,2,1.3,3.2c0,1.2-0.5,2.3-1.3,3.2
	C9.1,10.8,7.9,11.2,6.8,11.2z"/>
<g id="Layer_2">
</g>
</svg>
