<?xml version="1.0" encoding="utf-8"?>
<!-- Generator: Adobe Illustrator 19.2.1, SVG Export Plug-In . SVG Version: 6.00 Build 0)  -->
<svg version="1.1" id="Layer_1" xmlns="http://www.w3.org/2000/svg" xmlns:xlink="http://www.w3.org/1999/xlink" x="0px" y="0px"
	 viewBox="0 0 44 42" style="enable-background:new 0 0 44 42;" xml:space="preserve">
<path d="M5.1,42V0.4h11.3L25.6,19l4,9.3h0.3c-0.1-1.1-0.3-2.3-0.4-3.6s-0.3-2.7-0.4-4c-0.1-1.4-0.3-2.8-0.4-4.2
	c-0.1-1.4-0.1-2.8-0.1-4v-12h10.5V42H27.6l-9.2-18.6l-4-9.3h-0.3c0.3,2.4,0.6,5,0.9,7.8s0.5,5.5,0.5,8.1v12H5.1z"/>
<path d="M0.5,22.8h43V26h-43V22.8z"/>
</svg>
