<svg width="44" height="42" viewBox="0 0 44 42" fill="none" xmlns="http://www.w3.org/2000/svg">
<path d="M5.108 42V0.399998H16.372L25.588 18.96L29.556 28.304H29.812C29.684 27.1947 29.5347 25.9787 29.364 24.656C29.1933 23.3333 29.044 21.9893 28.916 20.624C28.788 19.216 28.66 17.8293 28.532 16.464C28.4467 15.056 28.404 13.712 28.404 12.432V0.399998H38.9V42H27.636L18.42 23.376L14.452 14.096H14.196C14.452 16.4853 14.7507 19.088 15.092 21.904C15.4333 24.72 15.604 27.408 15.604 29.968V42H5.108Z" fill="#F4F4F4"/>
<path d="M0.5 22.8H43.508V26H0.5V22.8Z" fill="#F4F4F4"/>
</svg>
