<svg width="41" height="41" viewBox="0 0 41 41" fill="none" xmlns="http://www.w3.org/2000/svg">
<circle cx="20.325" cy="20.325" r="19.825" stroke="#E53F27"/>
<g clip-path="url(#clip0)">
<path d="M15.317 19.756C17.676 19.756 19.5852 17.8467 19.5852 15.4877C19.5852 13.1288 17.676 11.2195 15.317 11.2195C12.958 11.2195 11.0487 13.1288 11.0487 15.4877C11.0487 17.8467 12.958 19.756 15.317 19.756ZM18.2438 20.9755H17.9275C17.1348 21.3566 16.2545 21.5852 15.317 21.5852C14.3795 21.5852 13.503 21.3566 12.7065 20.9755H12.3902C9.96644 20.9755 8 22.9419 8 25.3657V26.4632C8 27.4731 8.81935 28.2925 9.82925 28.2925H20.8047C21.8146 28.2925 22.634 27.4731 22.634 26.4632V25.3657C22.634 22.9419 20.6676 20.9755 18.2438 20.9755ZM26.2925 19.756C28.3123 19.756 29.951 18.1173 29.951 16.0975C29.951 14.0777 28.3123 12.439 26.2925 12.439C24.2727 12.439 22.634 14.0777 22.634 16.0975C22.634 18.1173 24.2727 19.756 26.2925 19.756ZM28.1217 20.9755H27.9769C27.4472 21.1584 26.887 21.2804 26.2925 21.2804C25.698 21.2804 25.1378 21.1584 24.6081 20.9755H24.4632C23.6858 20.9755 22.9694 21.2003 22.3406 21.5624C23.2704 22.5646 23.8535 23.8947 23.8535 25.3657V26.8291C23.8535 26.9129 23.8344 26.993 23.8306 27.073H30.5607C31.5706 27.073 32.39 26.2536 32.39 25.2437C32.39 22.8848 30.4807 20.9755 28.1217 20.9755Z" fill="#E53F27"/>
</g>
<defs>
<clipPath id="clip0">
<rect x="8" y="10" width="24.39" height="19.512" fill="white"/>
</clipPath>
</defs>
</svg>
