<svg width="41" height="41" viewBox="0 0 41 41" fill="none" xmlns="http://www.w3.org/2000/svg">
<circle cx="20.325" cy="20.325" r="19.825" stroke="#E53F27"/>
<g clip-path="url(#clip0)">
<path d="M19.0702 15.4877C19.0702 17.5623 17.3915 19.241 15.317 19.241C13.2425 19.241 11.5637 17.5623 11.5637 15.4877C11.5637 13.4132 13.2425 11.7345 15.317 11.7345C17.3915 11.7345 19.0702 13.4132 19.0702 15.4877ZM15.317 22.1002C16.2968 22.1002 17.2156 21.8711 18.0425 21.4905H18.2438C20.3831 21.4905 22.119 23.2264 22.119 25.3657V26.4632C22.119 27.1887 21.5302 27.7775 20.8047 27.7775H9.82925C9.10378 27.7775 8.515 27.1887 8.515 26.4632V25.3657C8.515 23.2264 10.2509 21.4905 12.3902 21.4905H12.5919C13.4212 21.8707 14.3364 22.1002 15.317 22.1002ZM29.436 16.0975C29.436 17.8329 28.0279 19.241 26.2925 19.241C24.5571 19.241 23.149 17.8329 23.149 16.0975C23.149 14.3621 24.5571 12.954 26.2925 12.954C28.0279 12.954 29.436 14.3621 29.436 16.0975ZM26.2925 21.7954C26.926 21.7954 27.5162 21.6716 28.0617 21.4905H28.1217C30.1963 21.4905 31.875 23.1692 31.875 25.2437C31.875 25.9692 31.2862 26.558 30.5607 26.558H24.3685V25.3657C24.3685 24.0024 23.9107 22.7525 23.1571 21.7397C23.5666 21.5805 24.0042 21.4905 24.4632 21.4905H24.5233C25.0688 21.6716 25.659 21.7954 26.2925 21.7954Z" stroke="white" stroke-width="1.03"/>
</g>
<defs>
<clipPath id="clip0">
<rect x="8" y="10" width="24.39" height="19.512" fill="white"/>
</clipPath>
</defs>
</svg>
