<?xml version="1.0" encoding="utf-8"?>
<!-- Generator: Adobe Illustrator 19.2.1, SVG Export Plug-In . SVG Version: 6.00 Build 0)  -->
<svg version="1.1" id="Layer_1" xmlns="http://www.w3.org/2000/svg" xmlns:xlink="http://www.w3.org/1999/xlink" x="0px" y="0px"
	 viewBox="0 0 18 18" style="enable-background:new 0 0 18 18;" xml:space="preserve">
<!-- <style type="text/css">
	.st0{fill:#FFFFFF;}
</style> -->
<path class="st0" d="M16.4,14.4c-0.4-1-1-1.8-1.7-2.6c-0.7-0.7-1.6-1.3-2.6-1.7c0,0,0,0,0,0c1.3-1,2.2-2.5,2.2-4.3
	c0-2.9-2.4-5.3-5.3-5.3c-2.9,0-5.3,2.4-5.3,5.3c0,1.8,0.9,3.4,2.2,4.3c0,0,0,0,0,0c-1,0.4-1.8,1-2.6,1.7c-0.7,0.7-1.3,1.6-1.7,2.6
	c-0.4,0.9-0.6,1.9-0.6,3c0,0,0,0,0,0.1c0,0,0,0,0,0.1c0,0,0,0,0.1,0s0,0,0.1,0h1.3c0.1,0,0.2-0.1,0.2-0.2c0-1.7,0.7-3.2,1.9-4.4
	c1.2-1.2,2.8-1.9,4.6-1.9c1.7,0,3.3,0.7,4.6,1.9c1.2,1.2,1.8,2.7,1.9,4.4c0,0.1,0.1,0.2,0.2,0.2h1.3c0,0,0,0,0.1,0c0,0,0,0,0.1,0
	c0,0,0,0,0-0.1c0,0,0,0,0-0.1C17.1,16.3,16.8,15.3,16.4,14.4z M9,9.5c-1,0-1.9-0.4-2.6-1.1C5.7,7.7,5.3,6.8,5.3,5.8
	c0-1,0.4-1.9,1.1-2.6C7.1,2.5,8,2.1,9,2.1s1.9,0.4,2.6,1.1c0.7,0.7,1.1,1.6,1.1,2.6c0,1-0.4,1.9-1.1,2.6C10.9,9.1,10,9.5,9,9.5z"/>
<g id="Layer_2">
</g>
</svg>
