<svg width="41" height="41" viewBox="0 0 41 41" fill="none" xmlns="http://www.w3.org/2000/svg">
<circle cx="20.325" cy="20.325" r="19.825" stroke="#E53F27"/>
<path d="M21.707 13.293C21.6143 13.2 21.5041 13.1262 21.3828 13.0759C21.2614 13.0256 21.1313 12.9998 21 13H12C11.7348 13 11.4804 13.1054 11.2929 13.2929C11.1054 13.4804 11 13.7348 11 14V23C11 23.266 11.105 23.52 11.293 23.707L19.293 31.707C19.3857 31.8002 19.4958 31.8741 19.6171 31.9246C19.7385 31.9751 19.8686 32.001 20 32.001C20.1314 32.001 20.2615 31.9751 20.3829 31.9246C20.5042 31.8741 20.6143 31.8002 20.707 31.707L29.707 22.707C29.7999 22.6142 29.8737 22.504 29.924 22.3827C29.9743 22.2614 30.0002 22.1313 30.0002 22C30.0002 21.8687 29.9743 21.7386 29.924 21.6173C29.8737 21.496 29.7999 21.3858 29.707 21.293L21.707 13.293ZM20 29.586L13 22.586V15H20.586L27.586 22L20 29.586Z" fill="white"/>
<path d="M16.496 20C17.3272 20 18.001 19.3262 18.001 18.495C18.001 17.6638 17.3272 16.99 16.496 16.99C15.6648 16.99 14.991 17.6638 14.991 18.495C14.991 19.3262 15.6648 20 16.496 20Z" fill="white"/>
</svg>
