<?xml version="1.0" encoding="utf-8"?>
<!-- Generator: Adobe Illustrator 19.2.1, SVG Export Plug-In . SVG Version: 6.00 Build 0)  -->
<svg version="1.1" id="Layer_1" xmlns="http://www.w3.org/2000/svg" xmlns:xlink="http://www.w3.org/1999/xlink" x="0px" y="0px"
	 viewBox="0 0 1792 1792" style="enable-background:new 0 0 1792 1792;" xml:space="preserve">
<path d="M576,1152v128H448v-128H576z M576,384v128H448V384H576z M1344,384v128h-128V384H1344z M320,1407h384v-383H320V1407z
	 M320,640h384V256H320V640z M1088,640h384V256h-384V640z M832,896v640H192V896H832z M1344,1408v128h-128v-128H1344z M1600,1408v128
	h-128v-128H1600z M1600,896v384h-384v-128h-128v384H960V896h384v128h128V896H1600z M832,128v640H192V128H832z M1600,128v640H960V128
	H1600z"/>
</svg>
