<svg width="31" height="31" viewBox="0 0 31 31" fill="none" xmlns="http://www.w3.org/2000/svg">
<path d="M19.994 27.509H24.5031C25.3003 27.509 26.0649 27.1923 26.6287 26.6286C27.1924 26.0648 27.5091 25.3002 27.5091 24.503V19.9939C27.5091 19.5952 27.6675 19.2129 27.9493 18.9311C28.2312 18.6492 28.6135 18.4908 29.0121 18.4908C29.4108 18.4908 29.7931 18.6492 30.075 18.9311C30.3568 19.2129 30.5152 19.5952 30.5152 19.9939V24.503C30.5152 26.0975 29.8818 27.6267 28.7543 28.7542C27.6268 29.8817 26.0976 30.5151 24.5031 30.5151H6.4667C4.87218 30.5151 3.34298 29.8817 2.21548 28.7542C1.08799 27.6267 0.454575 26.0975 0.454575 24.503V19.9939C0.454575 19.5952 0.612929 19.2129 0.894802 18.9311C1.17667 18.6492 1.55898 18.4908 1.9576 18.4908C2.35623 18.4908 2.73853 18.6492 3.02041 18.9311C3.30228 19.2129 3.46064 19.5952 3.46064 19.9939V24.503C3.46064 25.3002 3.77734 26.0648 4.34109 26.6286C4.90484 27.1923 5.66944 27.509 6.4667 27.509H10.9758C11.3744 27.509 11.7567 27.6674 12.0386 27.9492C12.3205 28.2311 12.4788 28.6134 12.4788 29.012C12.4788 29.4107 12.3205 29.793 12.0386 30.0748C11.7567 30.3567 11.3744 30.5151 10.9758 30.5151H19.994C19.5953 30.5151 19.213 30.3567 18.9312 30.0748C18.6493 29.793 18.4909 29.4107 18.4909 29.012C18.4909 28.6134 18.6493 28.2311 18.9312 27.9492C19.213 27.6674 19.5953 27.509 19.994 27.509ZM3.46064 10.9757C3.46064 11.3743 3.30228 11.7566 3.02041 12.0385C2.73853 12.3204 2.35623 12.4787 1.9576 12.4787C1.55898 12.4787 1.17667 12.3204 0.894802 12.0385C0.612929 11.7566 0.454575 11.3743 0.454575 10.9757V6.46659C0.454575 4.87208 1.08799 3.34287 2.21548 2.21538C3.34298 1.08789 4.87218 0.454468 6.4667 0.454468H10.9758C11.3744 0.454468 11.7567 0.612822 12.0386 0.894695C12.3205 1.17657 12.4788 1.55887 12.4788 1.9575C12.4788 2.35613 12.3205 2.73843 12.0386 3.0203C11.7567 3.30217 11.3744 3.46053 10.9758 3.46053H6.4667C5.66944 3.46053 4.90484 3.77724 4.34109 4.34098C3.77734 4.90473 3.46064 5.66933 3.46064 6.46659V10.9757ZM27.5091 10.9757V6.46659C27.5091 5.66933 27.1924 4.90473 26.6287 4.34098C26.0649 3.77724 25.3003 3.46053 24.5031 3.46053H19.994C19.5953 3.46053 19.213 3.30217 18.9312 3.0203C18.6493 2.73843 18.4909 2.35613 18.4909 1.9575C18.4909 1.55887 18.6493 1.17657 18.9312 0.894695C19.213 0.612822 19.5953 0.454468 19.994 0.454468H24.5031C26.0976 0.454468 27.6268 1.08789 28.7543 2.21538C29.8818 3.34287 30.5152 4.87208 30.5152 6.46659V10.9757C30.5152 11.3743 30.3568 11.7566 30.075 12.0385C29.7931 12.3204 29.4108 12.4787 29.0121 12.4787C28.6135 12.4787 28.2312 12.3204 27.9493 12.0385C27.6675 11.7566 27.5091 11.3743 27.5091 10.9757Z" fill="white"/>
</svg>
