<svg width="41" height="41" viewBox="0 0 41 41" fill="none" xmlns="http://www.w3.org/2000/svg">
<circle cx="20.325" cy="20.325" r="19.825" stroke="#E53F27"/>
<g clip-path="url(#clip0)">
<path d="M28.1411 11.875H31.6407C31.736 11.875 31.8274 11.8371 31.8948 11.7697C31.9622 11.7023 32 11.6109 32 11.5156C32 11.4203 31.9622 11.3289 31.8948 11.2615C31.8274 11.1941 31.736 11.1562 31.6407 11.1562H27.3282C27.2328 11.1562 27.1414 11.1941 27.074 11.2615C27.0066 11.3289 26.9688 11.4203 26.9688 11.5156V15.8281C26.9688 15.9234 27.0066 16.0148 27.074 16.0822C27.1414 16.1496 27.2328 16.1875 27.3282 16.1875C27.4235 16.1875 27.5149 16.1496 27.5823 16.0822C27.6497 16.0148 27.6875 15.9234 27.6875 15.8281V12.4378L28.1267 12.8769C30.1629 14.9132 31.2849 17.6207 31.2849 20.5C31.2849 23.3793 30.1629 26.0868 28.1267 28.1231C26.6463 29.603 24.7674 30.6204 22.719 31.0511C20.6705 31.4818 18.541 31.3073 16.59 30.5488C16.5013 30.5143 16.4025 30.5165 16.3153 30.5548C16.2282 30.5932 16.1599 30.6646 16.1254 30.7533C16.0909 30.8421 16.093 30.9409 16.1314 31.028C16.1697 31.1152 16.2411 31.1835 16.3298 31.218C18.4108 32.0272 20.6822 32.2134 22.8671 31.754C25.052 31.2945 27.0561 30.2093 28.6348 28.6305C30.8069 26.4592 32.0036 23.5705 32.0036 20.4993C32.0036 17.4281 30.8069 14.5401 28.6348 12.3688L28.1411 11.875Z" fill="white"/>
<path d="M13.6719 24.8125C13.5766 24.8125 13.4852 24.8504 13.4178 24.9178C13.3504 24.9852 13.3125 25.0766 13.3125 25.1719V28.6506L12.8 28.1382C10.7638 26.1019 9.64185 23.3944 9.64185 20.5151C9.64185 17.6358 10.7638 14.9275 12.8 12.8913C14.262 11.4336 16.1108 10.425 18.1278 9.98483C20.1449 9.54463 22.2458 9.69124 24.1822 10.4073C24.2701 10.4345 24.3651 10.427 24.4477 10.3863C24.5303 10.3456 24.5942 10.2749 24.6262 10.1886C24.6582 10.1022 24.656 10.0069 24.6199 9.92224C24.5838 9.83754 24.5167 9.76986 24.4323 9.73313C22.3668 8.96995 20.126 8.81395 17.9747 9.28354C15.8234 9.75313 13.8515 10.8287 12.2919 12.3832C10.1198 14.5545 8.9231 17.4432 8.9231 20.5144C8.9231 23.5856 10.1198 26.4743 12.2919 28.6456L12.7706 29.125H9.35938C9.26406 29.125 9.17266 29.1629 9.10526 29.2303C9.03786 29.2977 9 29.3891 9 29.4844C9 29.5797 9.03786 29.6711 9.10526 29.7385C9.17266 29.8059 9.26406 29.8438 9.35938 29.8438H13.5684C13.5971 29.8509 13.8386 29.8258 13.9091 29.7553C13.9119 29.7525 13.9127 29.7489 13.9155 29.746C13.9518 29.7127 13.9809 29.6723 14.0008 29.6273C14.0207 29.5823 14.0311 29.5336 14.0313 29.4844V25.1719C14.0313 25.0766 13.9934 24.9852 13.926 24.9178C13.8586 24.8504 13.7672 24.8125 13.6719 24.8125Z" fill="white"/>
<circle cx="20.5" cy="20.5" r="3.8125" stroke="white"/>
</g>
<defs>
<clipPath id="clip0">
<rect x="9" y="9" width="23" height="23" fill="white"/>
</clipPath>
</defs>
</svg>
