<svg width="19" height="20" viewBox="0 0 19 20" fill="none" xmlns="http://www.w3.org/2000/svg">
<path d="M18.24 5.035H14.7345C15.0575 4.52675 15.2475 3.9235 15.2475 3.2775C15.2475 1.47012 13.7774 0 11.97 0C10.9867 0 10.1009 0.437 9.5 1.12575C8.89913 0.437 8.01325 0 7.03 0C5.22262 0 3.7525 1.47012 3.7525 3.2775C3.7525 3.9235 3.94012 4.52675 4.2655 5.035H0.76C0.339625 5.035 0 5.37462 0 5.795V10.545C0 10.6495 0.0855 10.735 0.19 10.735H1.14V18.905C1.14 19.3254 1.47962 19.665 1.9 19.665H17.1C17.5204 19.665 17.86 19.3254 17.86 18.905V10.735H18.81C18.9145 10.735 19 10.6495 19 10.545V5.795C19 5.37462 18.6604 5.035 18.24 5.035ZM10.3075 3.2775C10.3075 2.36075 11.0533 1.615 11.97 1.615C12.8868 1.615 13.6325 2.36075 13.6325 3.2775C13.6325 4.19425 12.8868 4.94 11.97 4.94H10.3075V3.2775ZM7.03 1.615C7.94675 1.615 8.6925 2.36075 8.6925 3.2775V4.94H7.03C6.11325 4.94 5.3675 4.19425 5.3675 3.2775C5.3675 2.36075 6.11325 1.615 7.03 1.615ZM1.615 9.12V6.65H8.6925V9.12H1.615ZM2.755 10.735H8.6925V18.05H2.755V10.735ZM16.245 18.05H10.3075V10.735H16.245V18.05ZM17.385 9.12H10.3075V6.65H17.385V9.12Z" fill="#E53F27"/>
</svg>
