<svg width="24" height="24" viewBox="0 0 24 24" fill="none" xmlns="http://www.w3.org/2000/svg">
<g clip-path="url(#clip0)">
<path d="M12.008 9.59702C12.7527 9.58709 13.4919 9.72518 14.1828 10.0033C14.8736 10.2814 15.5023 10.694 16.0324 11.217C16.5626 11.7401 16.9835 12.3633 17.2708 13.0504C17.558 13.7375 17.706 14.4748 17.706 15.2195C17.706 15.9643 17.558 16.7016 17.2708 17.3887C16.9835 18.0757 16.5626 18.6989 16.0324 19.222C15.5023 19.7451 14.8736 20.1577 14.1828 20.4358C13.4919 20.7139 12.7527 20.852 12.008 20.842C10.5298 20.8223 9.11884 20.2213 8.0805 19.169C7.04216 18.1167 6.45999 16.6978 6.45999 15.2195C6.45999 13.7412 7.04216 12.3223 8.0805 11.2701C9.11884 10.2178 10.5298 9.61673 12.008 9.59702V9.59702ZM0.154003 8.71702L3.174 12.291C3.22884 12.3564 3.29621 12.4101 3.37215 12.4491C3.44809 12.488 3.53106 12.5113 3.61616 12.5176C3.70125 12.524 3.78676 12.5132 3.86763 12.486C3.9485 12.4587 4.02309 12.4156 4.087 12.359C8.972 7.98002 15.057 7.98002 19.927 12.359C19.9912 12.4156 20.066 12.4589 20.1471 12.4861C20.2282 12.5134 20.314 12.5242 20.3993 12.5179C20.4847 12.5116 20.5679 12.4882 20.6441 12.4493C20.7203 12.4103 20.7879 12.3565 20.843 12.291L23.849 8.71702C23.9584 8.58659 24.0119 8.41825 23.9978 8.24859C23.9838 8.07894 23.9034 7.92169 23.774 7.81102C16.674 1.60702 7.312 1.60702 0.219003 7.81102C0.092022 7.92365 0.0141343 8.08148 0.0019881 8.25078C-0.0101581 8.42008 0.0444008 8.58742 0.154003 8.71702V8.71702Z" fill="white"/>
</g>
<defs>
<clipPath id="clip0">
<rect width="24" height="24" fill="white"/>
</clipPath>
</defs>
</svg>
