<svg width="24" height="24" viewBox="0 0 24 24" fill="none" xmlns="http://www.w3.org/2000/svg">
<g clip-path="url(#clip0)">
<path d="M12.008 9.59702C12.7527 9.58709 13.4919 9.72518 14.1827 10.0033C14.8736 10.2814 15.5023 10.694 16.0324 11.217C16.5625 11.7401 16.9835 12.3633 17.2707 13.0504C17.558 13.7375 17.706 14.4748 17.706 15.2195C17.706 15.9643 17.558 16.7016 17.2707 17.3887C16.9835 18.0757 16.5625 18.6989 16.0324 19.222C15.5023 19.7451 14.8736 20.1577 14.1827 20.4358C13.4919 20.7139 12.7527 20.852 12.008 20.842C10.5298 20.8223 9.11883 20.2213 8.08049 19.169C7.04215 18.1167 6.45997 16.6978 6.45997 15.2195C6.45997 13.7412 7.04215 12.3223 8.08049 11.2701C9.11883 10.2178 10.5298 9.61673 12.008 9.59702ZM0.153988 8.71702L3.17399 12.291C3.22882 12.3564 3.2962 12.4101 3.37214 12.4491C3.44808 12.488 3.53104 12.5113 3.61614 12.5176C3.70124 12.524 3.78675 12.5132 3.86761 12.486C3.94848 12.4587 4.02307 12.4156 4.08699 12.359C8.97199 7.98002 15.057 7.98002 19.927 12.359C19.9912 12.4156 20.066 12.4589 20.1471 12.4861C20.2282 12.5134 20.314 12.5242 20.3993 12.5179C20.4846 12.5116 20.5679 12.4882 20.6441 12.4493C20.7203 12.4103 20.7879 12.3565 20.843 12.291L23.849 8.71702C23.9584 8.58659 24.0119 8.41825 23.9978 8.24859C23.9838 8.07894 23.9033 7.92169 23.774 7.81102C16.674 1.60702 7.31199 1.60702 0.218988 7.81102C0.0920067 7.92365 0.0141191 8.08148 0.00197284 8.25078C-0.0101734 8.42008 0.0443855 8.58742 0.153988 8.71702Z" fill="#E53F27"/>
</g>
<defs>
<clipPath id="clip0">
<rect width="24" height="24" fill="white"/>
</clipPath>
</defs>
</svg>
