<svg width="41" height="41" viewBox="0 0 41 41" fill="none" xmlns="http://www.w3.org/2000/svg">
<circle cx="20.325" cy="20.325" r="19.825" stroke="#E53F27"/>
<path d="M12.648 17.9445H22.3655V16.6667H12.648L15.0183 14.2836C15.0775 14.2241 15.1243 14.1534 15.1562 14.0758C15.188 13.9981 15.2043 13.9149 15.204 13.831C15.2037 13.747 15.1868 13.6639 15.1544 13.5865C15.122 13.5091 15.0747 13.4388 15.0151 13.3796C14.9556 13.3205 14.8849 13.2736 14.8073 13.2418C14.7296 13.2099 14.6464 13.1937 14.5625 13.194C14.4785 13.1943 14.3954 13.2111 14.318 13.2435C14.2406 13.2759 14.1702 13.3232 14.1111 13.3828L10.2075 17.3056L14.1111 21.2284C14.1679 21.2956 14.238 21.3504 14.317 21.3893C14.396 21.4282 14.4821 21.4503 14.5701 21.4543C14.658 21.4583 14.7459 21.4441 14.828 21.4126C14.9102 21.381 14.985 21.3328 15.0477 21.271C15.1104 21.2092 15.1596 21.1351 15.1923 21.0534C15.225 20.9717 15.2405 20.884 15.2377 20.7961C15.235 20.7081 15.2141 20.6216 15.1763 20.5421C15.1385 20.4625 15.0848 20.3917 15.0183 20.3339L12.648 17.9445Z" fill="white"/>
<path d="M23.6944 16.6666H25.6111V17.9444H23.6944V16.6666Z" fill="white"/>
<path d="M26.8889 16.6666H28.1667V17.9444H26.8889V16.6666Z" fill="white"/>
<path d="M26.8378 20.4105C26.7786 20.3509 26.7083 20.3036 26.6309 20.2712C26.5534 20.2388 26.4704 20.222 26.3864 20.2217C26.3025 20.2214 26.2193 20.2376 26.1416 20.2695C26.064 20.3013 25.9933 20.3482 25.9337 20.4073C25.8742 20.4665 25.8268 20.5368 25.7944 20.6142C25.762 20.6917 25.7452 20.7747 25.7449 20.8587C25.7446 20.9426 25.7609 21.0258 25.7927 21.1035C25.8246 21.1811 25.8714 21.2518 25.9306 21.3113L28.3008 23.6944H18.5833V24.9722H28.3008L25.9306 27.3616C25.8641 27.4194 25.8103 27.4902 25.7726 27.5698C25.7348 27.6493 25.7139 27.7358 25.7111 27.8238C25.7084 27.9118 25.7238 27.9994 25.7565 28.0811C25.7892 28.1628 25.8385 28.2369 25.9012 28.2987C25.9639 28.3606 26.0386 28.4087 26.1208 28.4403C26.203 28.4718 26.2908 28.486 26.3788 28.482C26.4667 28.478 26.5529 28.4559 26.6319 28.417C26.7109 28.3781 26.781 28.3233 26.8378 28.2561L30.7222 24.3333L26.8378 20.4105Z" fill="white"/>
<path d="M15.3889 23.6945H17.3056V24.9722H15.3889V23.6945Z" fill="white"/>
<path d="M12.8333 23.6945H14.1111V24.9722H12.8333V23.6945Z" fill="white"/>
</svg>
