<svg width="41" height="41" viewBox="0 0 41 41" fill="none" xmlns="http://www.w3.org/2000/svg">
<circle cx="20.325" cy="20.325" r="19.825" stroke="#E53F27"/>
<g clip-path="url(#clip0)">
<path fill-rule="evenodd" clip-rule="evenodd" d="M26.7411 15.6786C26.6742 15.7454 26.6211 15.8247 26.5848 15.912C26.5486 15.9994 26.53 16.093 26.53 16.1875C26.53 16.282 26.5486 16.3757 26.5848 16.463C26.6211 16.5503 26.6742 16.6296 26.7411 16.6964L30.5462 20.5L26.7411 24.3036C26.6743 24.3705 26.6213 24.4498 26.5851 24.5371C26.549 24.6244 26.5303 24.718 26.5303 24.8125C26.5303 24.907 26.549 25.0006 26.5851 25.0879C26.6213 25.1752 26.6743 25.2545 26.7411 25.3214C26.8079 25.3882 26.8873 25.4412 26.9746 25.4774C27.0619 25.5135 27.1555 25.5322 27.25 25.5322C27.3445 25.5322 27.4381 25.5135 27.5254 25.4774C27.6127 25.4412 27.692 25.3882 27.7589 25.3214L32.0714 21.0089C32.1383 20.9421 32.1914 20.8628 32.2276 20.7755C32.2639 20.6882 32.2825 20.5945 32.2825 20.5C32.2825 20.4055 32.2639 20.3118 32.2276 20.2245C32.1914 20.1372 32.1383 20.0579 32.0714 19.9911L27.7589 15.6786C27.6921 15.6117 27.6128 15.5586 27.5255 15.5224C27.4381 15.4861 27.3445 15.4675 27.25 15.4675C27.1555 15.4675 27.0618 15.4861 26.9745 15.5224C26.8872 15.5586 26.8079 15.6117 26.7411 15.6786Z" fill="white"/>
<path fill-rule="evenodd" clip-rule="evenodd" d="M16.4687 20.5C16.4687 20.6906 16.5445 20.8734 16.6793 21.0082C16.8141 21.143 16.9969 21.2187 17.1875 21.2187L30.125 21.2187C30.3156 21.2187 30.4984 21.143 30.6332 21.0082C30.768 20.8734 30.8437 20.6906 30.8437 20.5C30.8437 20.3094 30.768 20.1266 30.6332 19.9918C30.4984 19.857 30.3156 19.7812 30.125 19.7812L17.1875 19.7812C16.9969 19.7812 16.8141 19.857 16.6793 19.9918C16.5445 20.1266 16.4687 20.3094 16.4687 20.5Z" fill="white"/>
<path fill-rule="evenodd" clip-rule="evenodd" d="M12.875 12.5937C12.3031 12.5937 11.7547 12.8209 11.3503 13.2253C10.9459 13.6297 10.7187 14.1781 10.7187 14.75L10.7187 26.25C10.7187 26.8219 10.9459 27.3703 11.3503 27.7747C11.7547 28.1791 12.3031 28.4062 12.875 28.4062L22.9375 28.4062C23.5094 28.4062 24.0578 28.1791 24.4622 27.7747C24.8666 27.3703 25.0937 26.8219 25.0937 26.25L25.0937 24.0938C25.0937 23.9031 25.018 23.7203 24.8832 23.5855C24.7484 23.4507 24.5656 23.375 24.375 23.375C24.1844 23.375 24.0016 23.4507 23.8668 23.5855C23.732 23.7203 23.6562 23.9031 23.6562 24.0937L23.6562 26.25C23.6562 26.4406 23.5805 26.6234 23.4457 26.7582C23.3109 26.893 23.1281 26.9687 22.9375 26.9687L12.875 26.9687C12.6844 26.9687 12.5016 26.893 12.3668 26.7582C12.232 26.6234 12.1562 26.4406 12.1562 26.25L12.1562 14.75C12.1562 14.5594 12.232 14.3766 12.3668 14.2418C12.5016 14.107 12.6844 14.0312 12.875 14.0312L22.9375 14.0312C23.1281 14.0312 23.3109 14.107 23.4457 14.2418C23.5805 14.3766 23.6562 14.5594 23.6562 14.75L23.6562 16.9062C23.6562 17.0969 23.732 17.2797 23.8668 17.4145C24.0016 17.5493 24.1844 17.625 24.375 17.625C24.5656 17.625 24.7484 17.5493 24.8832 17.4145C25.018 17.2797 25.0937 17.0969 25.0937 16.9062L25.0937 14.75C25.0937 14.1781 24.8666 13.6297 24.4622 13.2253C24.0578 12.8209 23.5094 12.5937 22.9375 12.5937L12.875 12.5937Z" fill="white"/>
</g>
<defs>
<clipPath id="clip0">
<rect x="33" y="9" width="23" height="23" transform="rotate(90 33 9)" fill="white"/>
</clipPath>
</defs>
</svg>
