<svg width="62" height="61" viewBox="0 0 62 61" fill="none" xmlns="http://www.w3.org/2000/svg">
<g filter="url(#filter0_d)">
<rect x="10.6613" y="6" width="40.6452" height="40.6452" rx="5" fill="#E53F27"/>
</g>
<path opacity="0.3" d="M32.7258 33.871C31.4484 33.871 30.4032 32.8259 30.4032 31.5484V24.5807C30.4032 23.3033 31.4484 22.2581 32.7258 22.2581H39.6935V19.9355H23.4355V36.1936H39.6935V33.871H32.7258Z" fill="black"/>
<path d="M42.0161 22.5831V19.9354C42.0161 18.658 40.9709 17.6128 39.6935 17.6128H23.4355C22.8195 17.6128 22.2287 17.8575 21.7932 18.2931C21.3576 18.7286 21.1129 19.3194 21.1129 19.9354V36.1934C21.1129 36.8094 21.3576 37.4002 21.7932 37.8357C22.2287 38.2713 22.8195 38.516 23.4355 38.516H39.6935C40.9709 38.516 42.0161 37.4709 42.0161 36.1934V33.5457C42.3671 33.343 42.659 33.052 42.8628 32.7016C43.0665 32.3512 43.175 31.9536 43.1774 31.5483V24.5805C43.1774 23.7212 42.7013 22.978 42.0161 22.5831ZM40.8548 24.5805V31.5483H32.7258V24.5805H40.8548ZM23.4355 36.1934V19.9354H39.6935V22.258H32.7258C31.4484 22.258 30.4032 23.3031 30.4032 24.5805V31.5483C30.4032 32.8257 31.4484 33.8709 32.7258 33.8709H39.6935V36.1934H23.4355Z" fill="black"/>
<path d="M36.2097 30.3872C37.1717 30.3872 37.9516 29.6073 37.9516 28.6453C37.9516 27.6832 37.1717 26.9033 36.2097 26.9033C35.2476 26.9033 34.4677 27.6832 34.4677 28.6453C34.4677 29.6073 35.2476 30.3872 36.2097 30.3872Z" fill="black"/>
<circle cx="24.0161" cy="19.355" r="5.22581" fill="black"/>
<path d="M23.8009 16.6543L26.0982 18.9517L23.8009 21.249L23.5811 21.0293L25.5025 19.1079H21.1129V18.7954H25.5025L23.5811 16.874L23.8009 16.6543Z" fill="white"/>
<defs>
<filter id="filter0_d" x="0.661285" y="0" width="60.6452" height="60.6452" filterUnits="userSpaceOnUse" color-interpolation-filters="sRGB">
<feFlood flood-opacity="0" result="BackgroundImageFix"/>
<feColorMatrix in="SourceAlpha" type="matrix" values="0 0 0 0 0 0 0 0 0 0 0 0 0 0 0 0 0 0 127 0"/>
<feOffset dy="4"/>
<feGaussianBlur stdDeviation="5"/>
<feColorMatrix type="matrix" values="0 0 0 0 1 0 0 0 0 0.313726 0 0 0 0 0 0 0 0 0.2 0"/>
<feBlend mode="normal" in2="BackgroundImageFix" result="effect1_dropShadow"/>
<feBlend mode="normal" in="SourceGraphic" in2="effect1_dropShadow" result="shape"/>
</filter>
</defs>
</svg>
