<?xml version="1.0" encoding="utf-8"?>
<!-- Generator: Adobe Illustrator 19.2.1, SVG Export Plug-In . SVG Version: 6.00 Build 0)  -->
<svg version="1.1" id="Layer_1" xmlns="http://www.w3.org/2000/svg" xmlns:xlink="http://www.w3.org/1999/xlink" x="0px" y="0px"
	 viewBox="0 0 40 40" style="enable-background:new 0 0 40 40;" xml:space="preserve">
<style type="text/css">
	.st0{opacity:0.3;enable-background:new    ;}
</style>
<path class="st0" d="M21.7,25c-1.8,0-3.3-1.5-3.3-3.3v-10c0-1.8,1.5-3.3,3.3-3.3h10V5H8.3v23.3h23.3V25H21.7z"/>
<path d="M35,8.8V5c0-1.8-1.5-3.3-3.3-3.3H8.3C7.4,1.7,6.6,2,6,2.6S5,4.1,5,5v23.3c0,0.9,0.4,1.7,1,2.4c0.6,0.6,1.5,1,2.4,1h23.3
	c1.8,0,3.3-1.5,3.3-3.3v-3.8c0.5-0.3,0.9-0.7,1.2-1.2c0.3-0.5,0.4-1.1,0.5-1.7v-10C36.7,10.4,36,9.4,35,8.8z M33.3,11.7v10H21.7v-10
	H33.3z M8.3,28.3V5h23.3v3.3h-10c-1.8,0-3.3,1.5-3.3,3.3v10c0,1.8,1.5,3.3,3.3,3.3h10v3.3H8.3z"/>
<path d="M26.7,20c1.4,0,2.5-1.1,2.5-2.5S28,15,26.7,15c-1.4,0-2.5,1.1-2.5,2.5S25.3,20,26.7,20z"/>
</svg>
